Coordinates
version=1
nRows=14
nColumns=46
inDegrees=yes

Units are S.I. units (second, meters, Newtons, ...)
Angles are in degrees.

endheader
time	pelvis_tilt	pelvis_list	pelvis_rotation	pelvis_tx	pelvis_ty	pelvis_tz	bb_angle	bb_tx	bb_ty	bb_tz	hip_flexion_r	hip_adduction_r	hip_rotation_r	knee_angle_r	knee_angle_r_beta	ankle_angle_r	subtalar_angle_r	mtp_angle_r	crank_angle_r	hip_flexion_l	hip_adduction_l	hip_rotation_l	knee_angle_l	knee_angle_l_beta	ankle_angle_l	subtalar_angle_l	mtp_angle_l	crank_angle_l	lumbar_extension	lumbar_bending	lumbar_rotation	arm_flex_r	arm_add_r	arm_rot_r	elbow_flex_r	pro_sup_r	wrist_flex_r	wrist_dev_r	arm_flex_l	arm_add_l	arm_rot_l	elbow_flex_l	pro_sup_l	wrist_flex_l	wrist_dev_l
      5.00500000	     -9.06556282	      5.30641031	      1.05558227	      0.17519760	      1.06019503	     -0.29452976	      0.00000000	      0.50000000	      0.00000000	      0.25000000	     56.71822255	     -8.71584177	      6.14148980	     85.43845272	      1.49118231	    -22.09539660	    -13.42653216	      0.00000000	      0.00000000	     69.38804766	     -3.49204479	     -1.99542521	     74.42588297	      1.29897671	      5.91734344	     -5.74512707	      0.00000000	      0.00000000	    -69.94070001	     -8.43827499	     -1.94509262	     89.02293318	    -30.35709510	     37.43502835	     60.25944937	     36.82545490	      0.00000000	      0.00000000	     89.53863327	    -10.99194233	     30.04610443	     64.60955921	     39.02444297	      0.00000000	      0.00000000
      5.01000000	     -8.88480992	      4.90228864	      0.93562817	      0.17514156	      1.05947577	     -0.29472165	      0.00000000	      0.50000000	      0.00000000	      0.25000000	     57.77165546	     -8.17528492	      6.25169574	     87.73901953	      1.53133477	    -21.87484396	    -13.65872440	      0.00000000	      0.00000000	     68.09913132	     -3.74745275	     -1.85435864	     72.28306302	      1.26157744	      4.40824464	     -5.35950152	      0.00000000	      0.00000000	    -69.92543028	     -8.22818861	     -1.48875180	     89.06200478	    -30.32068503	     37.54684236	     60.29456468	     36.83834373	      0.00000000	      0.00000000	     89.51473866	    -11.04630651	     30.02331166	     64.54162599	     38.95670800	      0.00000000	      0.00000000
      5.01500000	     -8.74284524	      4.94549347	      0.79716356	      0.17512433	      1.05883926	     -0.29499245	      0.00000000	      0.50000000	      0.00000000	      0.25000000	     59.02652804	     -7.99116019	      6.73109594	     90.11077337	      1.57272969	    -21.62321119	    -13.61227721	      0.00000000	      0.00000000	     66.68583653	     -3.74548941	     -2.16050775	     70.05006538	      1.22260428	      2.74388607	     -5.60129547	      0.00000000	      0.00000000	    -69.92546481	     -8.29365109	     -1.46890995	     89.07014437	    -30.38590977	     37.74456003	     60.37958203	     36.87563372	      0.00000000	      0.00000000	     89.50657656	    -10.98879544	     30.06441597	     64.22273051	     38.79071473	      0.00000000	      0.00000000
      5.02000000	     -8.65626476	      4.78672118	      0.75057198	      0.17502382	      1.05827308	     -0.29494677	      0.00000000	      0.50000000	      0.00000000	      0.25000000	     60.28369736	     -7.70179910	      6.95003114	     92.40039155	      1.61269106	    -21.22237761	    -13.63524444	      0.00000000	      0.00000000	     65.32936121	     -3.79959838	     -2.20507347	     67.76579781	      1.18273629	      1.06517258	     -5.48477774	      0.00000000	      0.00000000	    -69.85227376	     -8.17398045	     -1.27466458	     89.08339256	    -30.33269812	     37.97135345	     60.41918745	     36.89763064	      0.00000000	      0.00000000	     89.50053924	    -11.01235751	     30.05169273	     63.88481435	     38.59509110	      0.00000000	      0.00000000
      5.02500000	     -8.66886116	      4.18813560	      0.78033709	      0.17448020	      1.05727946	     -0.29551366	      0.00000000	      0.50000000	      0.00000000	      0.25000000	     61.63461244	     -7.24727179	      6.73619068	     94.62734927	      1.65155881	    -20.74159531	    -13.71758380	      0.00000000	      0.00000000	     64.23681420	     -4.14575033	     -2.02964972	     65.67272986	      1.14620536	     -0.51615137	     -5.01026136	      0.00000000	      0.00000000	    -69.63218544	     -7.73018881	     -0.79843244	     89.14156722	    -30.23512633	     38.00954657	     60.43987579	     36.91153862	      0.00000000	      0.00000000	     89.46939313	    -11.10129506	     29.97870849	     63.76649541	     38.53468051	      0.00000000	      0.00000000
      5.03000000	     -8.61401805	      4.12729240	      0.62549770	      0.17424627	      1.05676641	     -0.29585046	      0.00000000	      0.50000000	      0.00000000	      0.25000000	     63.04257340	     -6.98816346	      7.13025235	     96.81775427	      1.68978859	    -20.35133949	    -13.12269195	      0.00000000	      0.00000000	     62.79461938	     -4.13443562	     -2.09996946	     63.38723431	      1.10631594	     -2.36645723	     -5.29272473	      0.00000000	      0.00000000	    -69.53117712	     -7.69211552	     -0.69423574	     89.15445715	    -30.13444873	     38.10630714	     60.57501087	     36.84859725	      0.00000000	      0.00000000	     89.46652524	    -11.05876050	     29.96153096	     63.10706875	     38.20119045	      0.00000000	      0.00000000
      5.03500000	     -8.47072519	      3.87607492	      0.25740262	      0.17445870	      1.05675181	     -0.29597705	      0.00000000	      0.50000000	      0.00000000	      0.25000000	     64.24658666	     -6.51142016	      7.26314326	     98.85540637	      1.72535232	    -19.52696268	    -13.39145121	      0.00000000	      0.00000000	     61.12182438	     -4.36125452	     -1.92363915	     61.08778119	      1.06618291	     -3.59423441	     -5.05773821	      0.00000000	      0.00000000	    -69.55677954	     -7.68634153	     -0.31062245	     89.18329540	    -29.94188501	     37.99249683	     60.58615204	     36.94619532	      0.00000000	      0.00000000	     89.44182501	    -11.06837861	     29.80537107	     62.76264392	     38.13040930	      0.00000000	      0.00000000
      5.04000000	     -8.52175776	      3.29789033	      0.02837954	      0.17421788	      1.05618391	     -0.29634732	      0.00000000	      0.50000000	      0.00000000	      0.25000000	     65.67832787	     -5.86609001	      7.11327731	    100.83732722	      1.75994337	    -19.10567137	    -13.31731660	      0.00000000	      0.00000000	     59.80239455	     -4.79777446	     -1.57903520	     58.91403773	      1.02824393	     -4.90060952	     -4.46236495	      0.00000000	      0.00000000	    -69.32768635	     -7.40498329	      0.25898411	     89.24085482	    -29.76972263	     38.04882107	     60.58428902	     36.94908768	      0.00000000	      0.00000000	     89.41045666	    -11.18704445	     29.75087928	     62.59126265	     38.07551550	      0.00000000	      0.00000000
      5.04500000	     -8.46333332	      3.14224490	     -0.23314728	      0.17424846	      1.05612758	     -0.29688029	      0.00000000	      0.50000000	      0.00000000	      0.25000000	     67.05063647	     -5.54955440	      7.36990932	    102.80949053	      1.79436411	    -18.01436580	    -13.12345105	      0.00000000	      0.00000000	     58.11713380	     -4.93623708	     -1.65143624	     56.51327194	      0.98634267	     -6.37306304	     -4.44526554	      0.00000000	      0.00000000	    -69.24581874	     -7.33248021	      0.44253587	     89.27555726	    -29.53585807	     38.24616022	     60.52458412	     36.88792971	      0.00000000	      0.00000000	     89.40306074	    -11.18543580	     29.85733899	     61.72052417	     37.82496274	      0.00000000	      0.00000000
      5.05000000	     -8.55772448	      2.46579178	     -0.51824206	      0.17419262	      1.05582997	     -0.29715960	      0.00000000	      0.50000000	      0.00000000	      0.25000000	     68.49742291	     -4.83526293	      7.10334876	    104.60124272	      1.82563609	    -17.33989111	    -13.29597248	      0.00000000	      0.00000000	     56.73637929	     -5.51528805	     -1.29184155	     54.35573980	      0.94868663	     -7.41655127	     -3.81847691	      0.00000000	      0.00000000	    -69.01214911	     -6.95673001	      1.21200777	     89.33616217	    -29.31744640	     38.26541636	     60.56182954	     36.89239128	      0.00000000	      0.00000000	     89.35399353	    -11.34287585	     29.76182943	     61.62742950	     37.79217215	      0.00000000	      0.00000000
      5.05500000	     -8.59023192	      1.88725947	     -0.88931712	      0.17421997	      1.05567979	     -0.29744484	      0.00000000	      0.50000000	      0.00000000	      0.25000000	     69.88599770	     -4.17118250	      6.85704982	    106.30957678	      1.85545214	    -16.50634863	    -13.39306802	      0.00000000	      0.00000000	     55.23722326	     -6.14765970	     -1.21294148	     52.17303562	      0.91059125	     -8.73943752	     -3.25765056	      0.00000000	      0.00000000	    -68.85731467	     -6.73842455	      1.79870556	     89.36664244	    -29.09387384	     38.31901614	     60.61152239	     36.88381165	      0.00000000	      0.00000000	     89.31786255	    -11.47371895	     29.74225159	     61.34463055	     37.72335506	      0.00000000	      0.00000000
      5.06000000	     -8.59401835	      1.35101128	     -1.21840511	      0.17439169	      1.05563453	     -0.29765105	      0.00000000	      0.50000000	      0.00000000	      0.25000000	     71.32738964	     -3.62731001	      6.62819884	    107.96972616	      1.88442721	    -15.80138490	    -13.26801284	      0.00000000	      0.00000000	     53.67702057	     -6.73757839	     -1.19162134	     50.06606132	      0.87381761	     -9.86328968	     -2.77181707	      0.00000000	      0.00000000	    -68.73276869	     -6.48880964	      2.38692875	     89.40240825	    -28.83923799	     38.36627315	     60.68098630	     36.87350698	      0.00000000	      0.00000000	     89.26364503	    -11.61367349	     29.72550447	     61.01799129	     37.64945001	      0.00000000	      0.00000000
      5.06500000	     -8.37477809	      1.10628762	     -1.73497911	      0.17468190	      1.05596574	     -0.29788918	      0.00000000	      0.50000000	      0.00000000	      0.25000000	     72.59097144	     -3.06774494	      6.85870218	    109.60306841	      1.91293441	    -14.73218377	    -12.30455049	      0.00000000	      0.00000000	     51.76857183	     -7.25597955	     -1.65769487	     47.94891897	      0.83686651	    -11.11071155	     -2.54460727	      0.00000000	      0.00000000	    -68.83890920	     -6.47700216	      2.76966627	     89.42540328	    -28.44638921	     38.37023190	     60.74615323	     36.77158628	      0.00000000	      0.00000000	     89.26667064	    -11.65525385	     29.79796408	     59.97722723	     37.42369380	      0.00000000	      0.00000000
      5.07000000	     -8.45900908	      0.44165251	     -1.96809665	      0.17461151	      1.05578391	     -0.29817687	      0.00000000	      0.50000000	      0.00000000	      0.25000000	     74.10574650	     -2.55540932	      6.36446439	    111.03671534	      1.93795627	    -14.07111060	    -12.48128295	      0.00000000	      0.00000000	     50.41988694	     -7.88857137	     -1.54309413	     46.12285497	      0.80499568	    -11.93926405	     -1.98391188	      0.00000000	      0.00000000	    -68.63020995	     -6.00384189	      3.54227785	     89.45695942	    -28.19692719	     38.40396883	     60.80614146	     36.75847729	      0.00000000	      0.00000000	     89.19560107	    -11.82580623	     29.71506587	     59.84243544	     37.38337886	      0.00000000	      0.00000000
